<svg xmlns="http://www.w3.org/2000/svg" xmlns:xlink="http://www.w3.org/1999/xlink" width="30" height="30" viewBox="0 0 30 30">
  <defs>
    <clipPath id="clip-path">
      <rect id="Rectangle_228197" data-name="Rectangle 228197" width="20" height="20" rx="5" fill="#fd9134"/>
    </clipPath>
  </defs>
  <g id="Group_272781" data-name="Group 272781" transform="translate(-372 -148)">
    <rect id="Rectangle_228196" data-name="Rectangle 228196" width="30" height="30" rx="5" transform="translate(372 148)" fill="#fef4ea"/>
    <g id="Mask_Group_89463" data-name="Mask Group 89463" transform="translate(377 153)" clip-path="url(#clip-path)">
      <g id="Group_292788" data-name="Group 292788" transform="translate(1)">
        <g id="Group_292790" data-name="Group 292790" transform="translate(1 -0.5)">
          <path id="Path_572941" data-name="Path 572941" d="M10.16,17.011c.045.034.306-.111.366-.142,1.033-.526,3.18-2.084,4.237-2.095a1.176,1.176,0,0,1,.737,2.142c-1.783.955-3.5,2.265-5.277,3.192a2.277,2.277,0,0,1-1.55.282c-1.226-.2-2.538-.749-3.772-.987-.217-.064-.346.138-.539.178.177.415.483.731.168,1.188a4.761,4.761,0,0,1-1.256.739.8.8,0,0,1-.8-.351c-.694-1.344-1.6-2.632-2.286-3.971-.19-.368-.318-.719.044-1.05a4.4,4.4,0,0,1,1.307-.654c.443,0,.637.347.834.67L4.9,14.733c1.23-.525,1.964.037,3.1.388.616.19,1.659.284,2.037.791a1.08,1.08,0,0,1,.114,1.1m-7.5-.334,1.388,2.38.708-.322,4,1.051a1.791,1.791,0,0,0,1.038-.139l5.4-3.26a.58.58,0,0,0-.117-.948c-.465-.193-1.081.157-1.491.373-.894.471-2.816,1.83-3.708,1.9A9.867,9.867,0,0,1,7.2,17.187c-.15-.046-.377-.084-.43-.248a.3.3,0,0,1,.268-.414l2.019.515a.487.487,0,0,0,.387-.867,8.655,8.655,0,0,0-1.432-.417c-.873-.263-1.881-.881-2.763-.5Zm-1.064-.63-1.025.57,2.5,4.347,1.025-.57Z" transform="translate(0 -3.518)" fill="#fd9134" stroke="#fd9134" stroke-width="0.2"/>
          <path id="Path_572948" data-name="Path 572948" d="M1.966,17.417a.324.324,0,1,1-.324-.324.324.324,0,0,1,.324.324" transform="translate(-0.3 -3.896)" fill="#fd9134" stroke="#fd9134" stroke-width="0.2"/>
          <path id="operation" d="M6.021,2.833a.333.333,0,0,0-.455-.122L5.247,2.9a1.668,1.668,0,0,0-.913-.528V2a.333.333,0,0,0-.667,0v.367a1.667,1.667,0,0,0-.913.528l-.319-.184a.333.333,0,1,0-.333.577l.318.183a1.668,1.668,0,0,0,0,1.055L2.1,4.711a.333.333,0,1,0,.333.577L2.753,5.1a1.668,1.668,0,0,0,.913.528V6a.333.333,0,1,0,.667,0V5.632A1.667,1.667,0,0,0,5.247,5.1l.319.184A.333.333,0,0,0,5.9,4.711l-.318-.183a1.668,1.668,0,0,0,0-1.055L5.9,3.289a.333.333,0,0,0,.122-.455ZM4,4.5A.5.5,0,1,1,4.5,4,.5.5,0,0,1,4,4.5ZM.665,3.7A.333.333,0,0,1,.334,4H.3A.333.333,0,0,1,0,3.637a4,4,0,0,1,6.665-2.61V.333a.333.333,0,1,1,.667,0V1.667a.667.667,0,0,1-.667.667H5.333a.333.333,0,1,1,0-.667H6.374A3.34,3.34,0,0,0,.665,3.7ZM8,4.363a4,4,0,0,1-6.665,2.61v.693a.333.333,0,1,1-.667,0V6.333a.667.667,0,0,1,.667-.667H2.667a.333.333,0,1,1,0,.667H1.626A3.34,3.34,0,0,0,7.335,4.3.333.333,0,0,1,8,4.363Z" transform="translate(7 3)" fill="#fd9134"/>
        </g>
      </g>
    </g>
  </g>
</svg>
