<svg xmlns="http://www.w3.org/2000/svg" xmlns:xlink="http://www.w3.org/1999/xlink" width="30" height="30" viewBox="0 0 30 30">
  <defs>
    <clipPath id="clip-path">
      <rect id="Rectangle_228197" data-name="Rectangle 228197" width="20" height="20" rx="5" fill="#408dfb"/>
    </clipPath>
  </defs>
  <g id="Group_272781" data-name="Group 272781" transform="translate(-372 -148)">
    <rect id="Rectangle_228196" data-name="Rectangle 228196" width="30" height="30" rx="5" transform="translate(372 148)" fill="#ebf3ff"/>
    <g id="Mask_Group_89463" data-name="Mask Group 89463" transform="translate(377 153)" clip-path="url(#clip-path)">
      <g id="Group_292788" data-name="Group 292788" transform="translate(1 1)">
        <g id="Group_292790" data-name="Group 292790" transform="translate(0 0)">
          <path id="Path_572941" data-name="Path 572941" d="M9.689,16.936c.043.033.292-.108.349-.138.985-.51,3.032-2.021,4.04-2.032a1.143,1.143,0,0,1,.7,2.078c-1.7.926-3.333,2.2-5.032,3.1a2.14,2.14,0,0,1-1.478.273c-1.169-.191-2.42-.726-3.6-.957-.207-.063-.33.134-.514.173.168.4.46.71.16,1.153a4.523,4.523,0,0,1-1.2.716.758.758,0,0,1-.763-.34C1.7,19.654.835,18.4.179,17.105c-.181-.357-.3-.7.042-1.018a4.168,4.168,0,0,1,1.247-.635c.423,0,.608.337.795.65l2.415-1.376c1.173-.51,1.873.036,2.96.377.588.185,1.582.276,1.943.767a1.063,1.063,0,0,1,.109,1.065m-7.155-.324,1.324,2.309.675-.312,3.816,1.02a1.682,1.682,0,0,0,.989-.135l5.147-3.162a.567.567,0,0,0-.111-.92c-.443-.188-1.031.152-1.422.362-.853.457-2.685,1.775-3.536,1.847a9.268,9.268,0,0,1-2.554-.515c-.143-.045-.359-.081-.41-.241a.29.29,0,0,1,.256-.4l1.926.5A.473.473,0,0,0,9,16.122a8.146,8.146,0,0,0-1.366-.4C6.8,15.462,5.844,14.863,5,15.232ZM1.52,16l-.978.553L2.927,20.77l.978-.553Z" transform="translate(0 -3.309)" fill="#408dfb" stroke="#408dfb" stroke-width="0.2"/>
          <path id="Path_572942" data-name="Path 572942" d="M6.082,7.916a3.041,3.041,0,1,1-3.041-3.04,3.041,3.041,0,0,1,3.041,3.04M5.063,9.247c.1.076.365-.752.381-.828A2.449,2.449,0,1,0,1,9.247,2.222,2.222,0,0,1,2.136,8.092a1.265,1.265,0,1,1,1.843-.019A2.278,2.278,0,0,1,5.063,9.247M3.714,7.21a.674.674,0,1,0-.674.673.673.673,0,0,0,.674-.673M2.741,8.5a1.711,1.711,0,0,0-1.165.894c-.165.353-.176.378.135.586a2.448,2.448,0,0,0,2.9-.19,1.447,1.447,0,0,0-.623-1A1.666,1.666,0,0,0,2.741,8.5" transform="translate(0 -1.111)" fill="#408dfb" stroke="#408dfb" stroke-width="0.2"/>
          <path id="Path_572943" data-name="Path 572943" d="M11.522.507A4.89,4.89,0,0,0,12.005.7c.168.011.277-.208.523-.128a6.855,6.855,0,0,1,.687.65c.141.242-.129.418-.1.608,0,.024.165.435.182.452.094.092.412.066.482.295a4.645,4.645,0,0,1,.008.916c-.06.273-.435.242-.5.339-.013.021-.175.441-.178.466-.011.163.2.28.135.53a2.842,2.842,0,0,1-.7.7c-.243.065-.387-.154-.562-.13-.023,0-.406.159-.432.174-.084.049-.111.442-.307.5a6.788,6.788,0,0,1-.931.007c-.233-.045-.234-.423-.317-.5a4.84,4.84,0,0,0-.477-.185c-.171,0-.294.2-.535.132a2.839,2.839,0,0,1-.7-.7c-.067-.249.146-.367.135-.53,0-.025-.164-.445-.178-.466-.067-.1-.442-.077-.5-.339a4.87,4.87,0,0,1,0-.888c.058-.262.433-.239.5-.339.015-.02.175-.438.175-.462,0-.168-.2-.309-.133-.535A7.883,7.883,0,0,1,8.95.57c.221-.1.343.094.5.12A2.747,2.747,0,0,0,9.988.506c.093-.093.067-.411.3-.481a4.328,4.328,0,0,1,.943,0c.229.069.2.39.3.482m-.59.085H10.58A.757.757,0,0,1,10.357,1c-.033.023-.718.31-.765.321-.171.038-.266-.047-.413-.116a.711.711,0,0,0-.259.235c-.011.055.133.276.127.386a2.768,2.768,0,0,1-.233.52c-.073.159-.039.31-.228.422-.062.037-.278.073-.289.117l.007.332a.765.765,0,0,1,.409.223,2.155,2.155,0,0,1,.11.323,1.9,1.9,0,0,1,.227.552c-.016.131-.185.266-.1.407.192.327.381,0,.618.032.111.015.195.11.288.147.382.151.624.128.746.6l.334-.006c.078-.46.368-.449.727-.591.122-.049.2-.166.362-.147.141.017.285.171.417.095.327-.191,0-.381.031-.618a3.971,3.971,0,0,1,.23-.494c.074-.168.024-.276.212-.4.064-.042.3-.107.3-.138l-.007-.332c-.155-.055-.312-.074-.409-.224-.086-.432-.511-.75-.205-1.179l-.235-.259-.383.131c-.392-.227-.967-.205-1.044-.746" transform="translate(-1.755 0)" fill="#408dfb" stroke="#408dfb" stroke-width="0.2"/>
          <path id="Path_572944" data-name="Path 572944" d="M21.513,7.915a3.039,3.039,0,1,1-3.039-3.037,3.038,3.038,0,0,1,3.039,3.037m-.588,0a2.451,2.451,0,1,0-2.451,2.45,2.45,2.45,0,0,0,2.451-2.45" transform="translate(-3.513 -1.112)" fill="#408dfb" stroke="#408dfb" stroke-width="0.2"/>
          <path id="Path_572945" data-name="Path 572945" d="M12.487,12.6a.309.309,0,0,1-.012-.4c.374-.287.733-.594,1.1-.883.107-.083.629-.516.693-.535a.3.3,0,0,1,.353.461,8.051,8.051,0,0,1-.76.613,10.657,10.657,0,0,1-1.037.805.3.3,0,0,1-.341-.056" transform="translate(-2.823 -2.453)" fill="#408dfb" stroke="#408dfb" stroke-width="0.2"/>
          <path id="Path_572946" data-name="Path 572946" d="M10.149,12.6c-.217.237-.511-.072-.691-.207-.487-.363-.94-.776-1.43-1.136a.3.3,0,0,1,.336-.48c.064.019.585.452.693.535.372.289.731.6,1.1.883a.309.309,0,0,1-.012.4" transform="translate(-1.809 -2.453)" fill="#408dfb" stroke="#408dfb" stroke-width="0.2"/>
          <path id="Path_572947" data-name="Path 572947" d="M11.439,8.859a.3.3,0,0,1,.409.262c.073.621-.055,1.384,0,2.021a.29.29,0,0,1-.577-.033,13.554,13.554,0,0,1,0-1.988.322.322,0,0,1,.171-.262" transform="translate(-2.556 -2.015)" fill="#408dfb" stroke="#408dfb" stroke-width="0.2"/>
          <path id="Path_572948" data-name="Path 572948" d="M1.966,17.417a.324.324,0,1,1-.324-.324.324.324,0,0,1,.324.324" transform="translate(-0.3 -3.896)" fill="#408dfb" stroke="#408dfb" stroke-width="0.2"/>
          <path id="Path_572949" data-name="Path 572949" d="M12.776,3.476a1.59,1.59,0,1,1-1.59-1.59,1.59,1.59,0,0,1,1.59,1.59m-.587,0a1,1,0,1,0-1,1,1,1,0,0,0,1-1" transform="translate(-2.184 -0.43)" fill="#408dfb" stroke="#408dfb" stroke-width="0.2"/>
          <path id="Path_572950" data-name="Path 572950" d="M19.318,6.616c.357.018.962.563.757.926a.3.3,0,0,1-.365.108c-.143-.048-.174-.269-.288-.362-.509-.416-1.292.244-.674.53.378.174.736.1,1.109.408a.868.868,0,0,1-.019,1.39c-.117.086-.5.2-.519.222s0,.145-.021.214a.3.3,0,0,1-.544.034c-.036-.084,0-.2-.034-.255-.012-.017-.3-.113-.379-.163-.252-.154-.717-.707-.378-.95.385-.276.456.288.646.429.291.217,1.128.135.978-.327-.1-.3-.655-.313-.907-.394a.917.917,0,0,1,.053-1.81c-.074-.581.659-.581.585,0" transform="translate(-4.061 -1.409)" fill="#408dfb" stroke="#408dfb" stroke-width="0.2"/>
        </g>
      </g>
    </g>
  </g>
</svg>
