<svg xmlns="http://www.w3.org/2000/svg" xmlns:xlink="http://www.w3.org/1999/xlink" width="30" height="30" viewBox="0 0 30 30">
  <defs>
    <clipPath id="clip-path">
      <rect id="Rectangle_228197" data-name="Rectangle 228197" width="20" height="20" rx="5" fill="#ea4335"/>
    </clipPath>
    <clipPath id="clip-path-2">
      <rect id="Rectangle_238524" data-name="Rectangle 238524" width="17.996" height="18" fill="#ea4335"/>
    </clipPath>
  </defs>
  <g id="Group_272781" data-name="Group 272781" transform="translate(-372 -148)">
    <rect id="Rectangle_228196" data-name="Rectangle 228196" width="30" height="30" rx="5" transform="translate(372 148)" fill="#fdecea"/>
    <g id="Mask_Group_89463" data-name="Mask Group 89463" transform="translate(377 153)" clip-path="url(#clip-path)">
      <g id="Group_292848" data-name="Group 292848" transform="translate(1.002 1)">
        <g id="Group_292848-2" data-name="Group 292848" transform="translate(0 0)" clip-path="url(#clip-path-2)">
          <path id="Path_572953" data-name="Path 572953" d="M18,19.086a.626.626,0,0,1-.358.363c-5.761.033-11.545.053-17.3-.01a.532.532,0,0,1-.134-.91,1.074,1.074,0,0,1,.206-.11h.651L1.074,6.364A.611.611,0,0,1,1.6,5.978c1.17.075,2.465-.1,3.621,0a.6.6,0,0,1,.528.28,1.866,1.866,0,0,1,.086.231v6.1H8.472V10.493c0-.172.4-.427.581-.4,1.158.074,2.442-.1,3.585,0a.749.749,0,0,1,.455.177.891.891,0,0,1,.158.334v4.445h3.321a.6.6,0,0,1,.366.442l0,2.931h.651c.143,0,.355.257.4.387ZM4.747,7.067H2.112V18.418H4.747Zm7.415,4.111H9.527v7.239h2.636Zm-3.69,2.46H5.837v4.78H8.472Zm7.415,2.46H13.252v2.32h2.636Z" transform="translate(0 -1.479)" fill="#ea4335"/>
          <path id="Path_572954" data-name="Path 572954" d="M4.836,0,9.391,4.46l2.174-2.142a.523.523,0,0,1,.651.017l3.443,3.428v-.58a.621.621,0,0,1,.442-.472c.4-.062.617.2.649.576a12.6,12.6,0,0,1,0,1.758.56.56,0,0,1-.438.545c-.645.078-1.466-.046-2.128-.017a.529.529,0,0,1-.1-.948,1.4,1.4,0,0,1,.192-.089h.615l-3.009-3.02L9.684,5.673a.525.525,0,0,1-.608-.021L4.308.9A.552.552,0,0,1,4.555,0Z" transform="translate(-1.037 0)" fill="#ea4335"/>
        </g>
      </g>
    </g>
  </g>
</svg>
