<svg xmlns="http://www.w3.org/2000/svg" width="177" height="20.001" viewBox="0 0 177 20.001">
  <g id="Group_297277" data-name="Group 297277" transform="translate(23857 18674)">
    <g id="Group_297275" data-name="Group 297275" transform="translate(-23857 -18674)">
      <path id="Path_575072" data-name="Path 575072" d="M115.608,63.23l.306.887h-5.456l-.3.868-.079.227-.981,2.836H103.87l1.024-2.769.926-2.513.651-1.756.9-2.444.572-1.548.9-2.446.644-1.742.9-2.446.836-2.262.012-.031H116.5l.012.031.856,2.262.728,1.932.091.246-3.693.017-.01.031-.7,1.884-.062.171-.566,1.645-.246.709-.537,1.548-.47,1.356h2.567Z" transform="translate(-103.87 -48.09)" fill="#fff"/>
      <path id="Path_575073" data-name="Path 575073" d="M170.966,111.423l-2.688-8.169-1.048-2.9h5.113l.567,1.548,3.483,9.489Z" transform="translate(-156.403 -91.423)" fill="#fff"/>
    </g>
    <path id="Path_583936" data-name="Path 583936" d="M4.259-84.355l6.8-19.683h1.416l6.834,19.683H18.087L13.235-98.411q-.357-1.07-.757-2.312t-.868-2.787h.3q-.456,1.559-.862,2.807t-.763,2.292L5.491-84.355Zm2.918-6.2v-1.136h9.21v1.136ZM26.4-84.038a5.593,5.593,0,0,1-2.272-.436A4.014,4.014,0,0,1,22.5-85.756a5.05,5.05,0,0,1-.88-2.048l1.071-.277a3.64,3.64,0,0,0,1.256,2.2,3.843,3.843,0,0,0,2.45.746,4.058,4.058,0,0,0,2.69-.859,2.717,2.717,0,0,0,1.028-2.18,2.5,2.5,0,0,0-.609-1.711,3.55,3.55,0,0,0-1.828-1.011l-2.192-.581a4.867,4.867,0,0,1-2.536-1.413,3.555,3.555,0,0,1-.85-2.417,3.771,3.771,0,0,1,.585-2.094,3.978,3.978,0,0,1,1.607-1.413,5.211,5.211,0,0,1,2.352-.509,4.953,4.953,0,0,1,2.05.4,3.878,3.878,0,0,1,1.478,1.156,5.613,5.613,0,0,1,.93,1.843l-1.047.291a4.04,4.04,0,0,0-1.2-1.915,3.288,3.288,0,0,0-2.21-.7,3.7,3.7,0,0,0-2.469.806,2.618,2.618,0,0,0-.954,2.1,2.469,2.469,0,0,0,.64,1.73,4.016,4.016,0,0,0,1.97,1.057l2.142.568a4.722,4.722,0,0,1,2.456,1.38,3.508,3.508,0,0,1,.831,2.384,3.89,3.89,0,0,1-.616,2.173,4.178,4.178,0,0,1-1.711,1.479A5.714,5.714,0,0,1,26.4-84.038Zm12.731,0a5.593,5.593,0,0,1-2.272-.436,4.014,4.014,0,0,1-1.625-1.281,5.05,5.05,0,0,1-.88-2.048l1.071-.277a3.64,3.64,0,0,0,1.256,2.2,3.843,3.843,0,0,0,2.45.746,4.058,4.058,0,0,0,2.69-.859,2.717,2.717,0,0,0,1.028-2.18,2.5,2.5,0,0,0-.609-1.711,3.55,3.55,0,0,0-1.828-1.011l-2.192-.581a4.867,4.867,0,0,1-2.536-1.413,3.555,3.555,0,0,1-.85-2.417,3.771,3.771,0,0,1,.585-2.094,3.978,3.978,0,0,1,1.607-1.413,5.211,5.211,0,0,1,2.352-.509,4.953,4.953,0,0,1,2.05.4A3.878,3.878,0,0,1,42.9-97.77a5.613,5.613,0,0,1,.93,1.843l-1.047.291a4.04,4.04,0,0,0-1.2-1.915,3.288,3.288,0,0,0-2.21-.7,3.7,3.7,0,0,0-2.469.806,2.618,2.618,0,0,0-.954,2.1,2.469,2.469,0,0,0,.64,1.73,4.016,4.016,0,0,0,1.97,1.057l2.142.568a4.722,4.722,0,0,1,2.456,1.38,3.508,3.508,0,0,1,.831,2.384,3.89,3.89,0,0,1-.616,2.173,4.178,4.178,0,0,1-1.711,1.479A5.714,5.714,0,0,1,39.129-84.038Zm14.024,0a5.431,5.431,0,0,1-3.244-.991,6.427,6.427,0,0,1-2.142-2.715,9.682,9.682,0,0,1-.757-3.93,9.729,9.729,0,0,1,.757-3.937,6.607,6.607,0,0,1,2.087-2.721,4.938,4.938,0,0,1,3.029-.991,5.077,5.077,0,0,1,2.21.5,5.443,5.443,0,0,1,1.835,1.44,7,7,0,0,1,1.25,2.292,9.591,9.591,0,0,1,.456,3.078v.555H47.711v-1.07H58.029l-.517.423a7.991,7.991,0,0,0-.579-3.1,5.267,5.267,0,0,0-1.619-2.193,3.858,3.858,0,0,0-2.432-.806,3.916,3.916,0,0,0-2.432.819,5.514,5.514,0,0,0-1.693,2.206,7.538,7.538,0,0,0-.616,3.091v.489a8.674,8.674,0,0,0,.6,3.309,5.326,5.326,0,0,0,1.724,2.305,4.355,4.355,0,0,0,2.69.845,4.221,4.221,0,0,0,1.927-.4,4.2,4.2,0,0,0,1.305-1,5.248,5.248,0,0,0,.77-1.136l1.022.436a5.275,5.275,0,0,1-.973,1.479,5.439,5.439,0,0,1-1.675,1.235A5.338,5.338,0,0,1,53.153-84.038ZM66.2-99.124v1.083H60.2v-1.083Zm-3.965-3.514h1.108v15.125a2.512,2.512,0,0,0,.542,1.783,1.592,1.592,0,0,0,1.539.383q.135-.026.32-.066t.332-.066l.246,1.057a3,3,0,0,1-.412.112,3.219,3.219,0,0,1-.437.059,2.537,2.537,0,0,1-2.376-.667,3.52,3.52,0,0,1-.862-2.53Zm10.675,18.6a5.593,5.593,0,0,1-2.272-.436,4.014,4.014,0,0,1-1.625-1.281,5.05,5.05,0,0,1-.88-2.048l1.071-.277a3.64,3.64,0,0,0,1.256,2.2,3.843,3.843,0,0,0,2.45.746,4.058,4.058,0,0,0,2.69-.859,2.717,2.717,0,0,0,1.028-2.18,2.5,2.5,0,0,0-.609-1.711A3.55,3.55,0,0,0,74.2-90.894L72-91.476a4.867,4.867,0,0,1-2.536-1.413,3.555,3.555,0,0,1-.85-2.417A3.771,3.771,0,0,1,69.2-97.4a3.978,3.978,0,0,1,1.607-1.413,5.212,5.212,0,0,1,2.352-.509,4.953,4.953,0,0,1,2.05.4,3.878,3.878,0,0,1,1.478,1.156,5.612,5.612,0,0,1,.93,1.843l-1.047.291a4.04,4.04,0,0,0-1.2-1.915,3.288,3.288,0,0,0-2.21-.7,3.7,3.7,0,0,0-2.469.806,2.618,2.618,0,0,0-.954,2.1,2.469,2.469,0,0,0,.64,1.73,4.016,4.016,0,0,0,1.97,1.057l2.142.568a4.722,4.722,0,0,1,2.456,1.38,3.508,3.508,0,0,1,.831,2.384,3.89,3.89,0,0,1-.616,2.173,4.178,4.178,0,0,1-1.711,1.479A5.714,5.714,0,0,1,72.915-84.038Z" transform="translate(-23833.727 -18569.961)" fill="#fff"/>
    <path id="Path_583937" data-name="Path 583937" d="M476.453-100.7l-.012-3.342h14.986v3.342h-5.615l.012,16.341h-3.756l-.012-16.341ZM492.5-84.355V-99.124h3.571v2.576h.148a3.844,3.844,0,0,1,1.274-2.074,3.23,3.23,0,0,1,2.05-.7q.283,0,.616.033a3.651,3.651,0,0,1,.579.1v3.54a3.144,3.144,0,0,0-.714-.145,7.917,7.917,0,0,0-.887-.053,2.982,2.982,0,0,0-1.515.39,2.718,2.718,0,0,0-1.053,1.083,3.347,3.347,0,0,0-.376,1.618v8.4Zm13.767.291a5.39,5.39,0,0,1-2.346-.5,3.773,3.773,0,0,1-1.638-1.479,4.648,4.648,0,0,1-.6-2.45,4.5,4.5,0,0,1,.425-2.061,3.53,3.53,0,0,1,1.157-1.334,5.648,5.648,0,0,1,1.662-.766,11.426,11.426,0,0,1,1.952-.37q1.194-.132,1.927-.244a2.529,2.529,0,0,0,1.071-.357.831.831,0,0,0,.339-.72v-.066a2.147,2.147,0,0,0-.246-1.07,1.607,1.607,0,0,0-.733-.667,2.722,2.722,0,0,0-1.176-.231,3.089,3.089,0,0,0-1.244.231,2.38,2.38,0,0,0-.862.614,2.53,2.53,0,0,0-.493.859l-3.386-.594a5.244,5.244,0,0,1,1.182-2.193,5.375,5.375,0,0,1,2.05-1.374,7.591,7.591,0,0,1,2.764-.476,8.192,8.192,0,0,1,2.155.284,5.815,5.815,0,0,1,1.878.878,4.224,4.224,0,0,1,1.318,1.552,5.008,5.008,0,0,1,.486,2.292v9.947h-3.5V-86.4h-.123a4.1,4.1,0,0,1-.887,1.209,4.076,4.076,0,0,1-1.336.826A4.959,4.959,0,0,1,506.265-84.065Zm1.047-2.787a3.079,3.079,0,0,0,1.533-.37,2.688,2.688,0,0,0,1.028-1,2.756,2.756,0,0,0,.369-1.413v-1.6a1.5,1.5,0,0,1-.493.238,6.652,6.652,0,0,1-.739.185q-.406.079-.8.145t-.7.106a4.523,4.523,0,0,0-1.194.343,1.989,1.989,0,0,0-.8.627,1.654,1.654,0,0,0-.283,1,1.637,1.637,0,0,0,.271.958,1.669,1.669,0,0,0,.739.588A2.726,2.726,0,0,0,507.311-86.852Zm15.909,2.787a6.555,6.555,0,0,1-3.589-.958,6.3,6.3,0,0,1-2.327-2.668,9.128,9.128,0,0,1-.819-3.983,9.193,9.193,0,0,1,.819-4.009,6.3,6.3,0,0,1,2.327-2.668,6.555,6.555,0,0,1,3.589-.958,7.113,7.113,0,0,1,2.253.343,5.94,5.94,0,0,1,1.835.978,5.264,5.264,0,0,1,1.318,1.546,6.294,6.294,0,0,1,.714,2.048l-3.436.687a3.829,3.829,0,0,0-.345-1.037,2.966,2.966,0,0,0-.566-.779,2.3,2.3,0,0,0-.77-.5,2.622,2.622,0,0,0-.967-.172,2.476,2.476,0,0,0-1.656.568,3.441,3.441,0,0,0-1.01,1.585,7.443,7.443,0,0,0-.339,2.351,7.349,7.349,0,0,0,.339,2.325,3.533,3.533,0,0,0,1.01,1.6,2.441,2.441,0,0,0,1.656.581,2.583,2.583,0,0,0,.973-.178,2.4,2.4,0,0,0,.788-.515,2.934,2.934,0,0,0,.579-.812,3.832,3.832,0,0,0,.332-1.07l3.435.674a6.378,6.378,0,0,1-.714,2.094,5.574,5.574,0,0,1-1.318,1.579,5.638,5.638,0,0,1-1.841,1A7.21,7.21,0,0,1,523.221-84.065Zm12.031-4.61v-4.769h.554l4.507-5.68h4.273l-5.948,7.411h-.874Zm-3.349,4.32v-19.683H535.6v19.683Zm8.595,0-4.137-6.473,2.475-2.814,6.009,9.286Z" transform="translate(-24224.844 -18569.961)" fill="#fff"/>
  </g>
</svg>
